<svg width="512" height="291" viewBox="0 0 512 291" fill="none" xmlns="http://www.w3.org/2000/svg">
<path opacity="0.49" d="M392.016 104.37C288.127 104.716 224.76 59.6764 175.33 51.0102C101.058 37.9976 3.10416 71.6725 66.2741 164.833C129.444 257.993 162.181 281.687 275.922 289.635C366.976 295.996 447.183 259.544 479.093 230.452C529.113 184.938 495.944 104.024 392.016 104.37Z" fill="url(#paint0_linear_146_1951)"/>
<path d="M15 231.435V195.685L96.8789 78.5898H146.369V193.094H167.616V231.435H146.369V265.113H102.061V231.435H15ZM105.17 127.293L61.6399 193.094H105.17V127.293Z" fill="#08448B"/>
<path d="M189.319 167.966C189.319 138.26 195.019 114.858 206.42 97.7603C217.993 80.6623 236.563 72.1133 262.129 72.1133C287.694 72.1133 306.177 80.6623 317.578 97.7603C329.152 114.858 334.939 138.26 334.939 167.966C334.939 198.017 329.152 221.591 317.578 238.689C306.177 255.787 287.694 264.336 262.129 264.336C236.563 264.336 217.993 255.787 206.42 238.689C195.019 221.591 189.319 198.017 189.319 167.966ZM291.408 167.966C291.408 150.522 289.508 137.137 285.708 127.811C281.907 118.312 274.048 113.563 262.129 113.563C250.209 113.563 242.35 118.312 238.549 127.811C234.749 137.137 232.849 150.522 232.849 167.966C232.849 179.71 233.54 189.468 234.922 197.239C236.304 204.839 239.068 211.056 243.213 215.892C247.532 220.555 253.837 222.886 262.129 222.886C270.42 222.886 276.639 220.555 280.785 215.892C285.103 211.056 287.953 204.839 289.335 197.239C290.717 189.468 291.408 179.71 291.408 167.966Z" fill="#08448B"/>
<path d="M359.384 231.435V195.685L441.263 78.5898H490.753V193.094H512V231.435H490.753V265.113H446.445V231.435H359.384ZM449.554 127.293L406.024 193.094H449.554V127.293Z" fill="#08448B"/>
<path d="M485.563 0H445.13C443.664 0 442.259 0.577814 441.223 1.60632C440.186 2.63482 439.604 4.02978 439.604 5.4843V30.177C439.604 31.6315 440.186 33.0265 441.223 34.055C442.259 35.0835 443.664 35.6613 445.13 35.6613H453.944L462.26 46.9509H465.347L476.722 35.6613H485.563C487.029 35.6613 488.434 35.0835 489.471 34.055C490.507 33.0265 491.089 31.6315 491.089 30.177V5.47091C491.086 4.0187 490.502 2.6272 489.466 1.60158C488.43 0.57597 487.026 -4.31946e-06 485.563 0Z" fill="url(#paint1_linear_146_1951)"/>
<path d="M482.443 0H441.967C440.5 0 439.093 0.577814 438.056 1.60632C437.018 2.63482 436.436 4.02978 436.436 5.4843V30.177C436.436 31.6315 437.018 33.0265 438.056 34.055C439.093 35.0835 440.5 35.6613 441.967 35.6613H450.791L462.178 46.9509L473.565 35.6613H482.389C483.856 35.6613 485.263 35.0835 486.301 34.055C487.338 33.0265 487.921 31.6315 487.921 30.177V5.47091C487.917 4.02793 487.34 2.64446 486.315 1.62036C485.29 0.596265 483.898 0.0140738 482.443 0Z" fill="url(#paint2_linear_146_1951)"/>
<path d="M463.366 49.7724C463.366 49.7724 429.389 68.4318 409.344 61.8911C389.299 55.3504 406.047 42.2559 417.418 42.2559C428.788 42.2559 435.407 79.0341 435.407 79.0341" stroke="#222222" stroke-width="0.5" stroke-linecap="round" stroke-linejoin="round" stroke-dasharray="3 3"/>
<path d="M415.842 67.2962C418.466 67.2962 420.594 65.019 420.594 62.2099C420.594 59.4008 418.466 57.1235 415.842 57.1235C413.217 57.1235 411.089 59.4008 411.089 62.2099C411.089 65.019 413.217 67.2962 415.842 67.2962Z" fill="#FFD46A"/>
<path d="M5.52572 22.6377H45.9591C47.4246 22.6377 48.8302 23.2155 49.8665 24.244C50.9028 25.2725 51.485 26.6675 51.485 28.122V52.8147C51.485 54.2692 50.9028 55.6642 49.8665 56.6927C48.8302 57.7212 47.4246 58.299 45.9591 58.299H37.1446L28.8288 69.5886H25.7424L14.3671 58.299H5.52572C4.06016 58.299 2.65463 57.7212 1.61832 56.6927C0.582016 55.6642 -0.000179291 54.2692 -0.000179291 52.8147V28.1086C0.00338745 26.6564 0.587173 25.2649 1.62309 24.2393C2.65901 23.2137 4.0625 22.6377 5.52572 22.6377Z" fill="url(#paint3_linear_146_1951)"/>
<path d="M8.64592 22.6377H49.1216C50.5887 22.6377 51.9957 23.2155 53.0331 24.244C54.0705 25.2725 54.6533 26.6675 54.6533 28.122V52.8147C54.6533 54.2692 54.0705 55.6642 53.0331 56.6927C51.9957 57.7212 50.5887 58.299 49.1216 58.299H40.2979L28.9107 69.5886L17.5236 58.299H8.6999C7.23281 58.299 5.8258 57.7212 4.78841 56.6927C3.75102 55.6642 3.16821 54.2692 3.16821 52.8147V28.1086C3.17169 26.6656 3.74863 25.2822 4.774 24.2581C5.79937 23.234 7.19053 22.6518 8.64592 22.6377Z" fill="url(#paint4_linear_146_1951)"/>
<path d="M28.4999 76.6128C28.6665 81.4461 30.5999 90.8128 36.9999 89.6128C44.9999 88.1128 36.9999 80.3633 34.4999 84.1128C31.9999 87.8622 33.9999 94.1128 38.9999 97.6128C43.9999 101.113 62.4999 95.1128 62.4999 109.613" stroke="black" stroke-width="0.5" stroke-dasharray="3 3"/>
<path d="M44.7524 99.9891C42.1277 99.9891 40 97.7118 40 94.9027C40 92.0936 42.1277 89.8164 44.7524 89.8164C47.3771 89.8164 49.5049 92.0936 49.5049 94.9027C49.5049 97.7118 47.3771 99.9891 44.7524 99.9891Z" fill="#FFD46A"/>
<defs>
<linearGradient id="paint0_linear_146_1951" x1="107.712" y1="138.626" x2="536.8" y2="454.926" gradientUnits="userSpaceOnUse">
<stop stop-color="#EAF1FC"/>
<stop offset="1" stop-color="#C0D4F4"/>
</linearGradient>
<linearGradient id="paint1_linear_146_1951" x1="14282.9" y1="7208.84" x2="16248.6" y2="7208.84" gradientUnits="userSpaceOnUse">
<stop stop-color="#223762"/>
<stop offset="1" stop-color="#041B48"/>
</linearGradient>
<linearGradient id="paint2_linear_146_1951" x1="14163.4" y1="7208.84" x2="16128.6" y2="7208.84" gradientUnits="userSpaceOnUse">
<stop stop-color="#4C93F4"/>
<stop offset="1" stop-color="#0B63DA"/>
</linearGradient>
<linearGradient id="paint3_linear_146_1951" x1="-13791.8" y1="7231.48" x2="-15757.6" y2="7231.48" gradientUnits="userSpaceOnUse">
<stop stop-color="#223762"/>
<stop offset="1" stop-color="#041B48"/>
</linearGradient>
<linearGradient id="paint4_linear_146_1951" x1="-13672.3" y1="7231.48" x2="-15637.5" y2="7231.48" gradientUnits="userSpaceOnUse">
<stop stop-color="#4C93F4"/>
<stop offset="1" stop-color="#0B63DA"/>
</linearGradient>
</defs>
</svg>
